<svg width="30" height="30" viewBox="0 0 256 256" fill="none" xmlns="http://www.w3.org/2000/svg">
	<path d="M144 128C144 131.165 143.062 134.258 141.304 136.889C139.545 139.52 137.047 141.571 134.123 142.782C131.199 143.993 127.982 144.31 124.879 143.693C121.775 143.075 118.924 141.551 116.686 139.314C114.449 137.076 112.925 134.225 112.307 131.121C111.69 128.018 112.007 124.801 113.218 121.877C114.429 118.953 116.48 116.455 119.111 114.696C121.742 112.938 124.836 112 128 112C132.243 112 136.313 113.686 139.314 116.686C142.314 119.687 144 123.757 144 128ZM60 112C56.8355 112 53.7421 112.938 51.1109 114.696C48.4797 116.455 46.4289 118.953 45.2179 121.877C44.0069 124.801 43.6901 128.018 44.3074 131.121C44.9248 134.225 46.4487 137.076 48.6863 139.314C50.9239 141.551 53.7749 143.075 56.8786 143.693C59.9823 144.31 63.1993 143.993 66.1229 142.782C69.0466 141.571 71.5454 139.52 73.3035 136.889C75.0616 134.258 76 131.165 76 128C76 123.757 74.3143 119.687 71.3137 116.686C68.3131 113.686 64.2435 112 60 112ZM196 112C192.836 112 189.742 112.938 187.111 114.696C184.48 116.455 182.429 118.953 181.218 121.877C180.007 124.801 179.69 128.018 180.307 131.121C180.925 134.225 182.449 137.076 184.686 139.314C186.924 141.551 189.775 143.075 192.879 143.693C195.982 144.31 199.199 143.993 202.123 142.782C205.047 141.571 207.545 139.52 209.304 136.889C211.062 134.258 212 131.165 212 128C212 123.757 210.314 119.687 207.314 116.686C204.313 113.686 200.243 112 196 112Z" fill="#ffff" />
</svg>
