<svg width="40" height="40" viewBox="0 0 19 21" fill="none" xmlns="http://www.w3.org/2000/svg">
<path d="M9.175 2.45C11.0583 2.45 12.775 2.85433 14.325 3.663C15.875 4.47167 17.2333 5.67567 18.4 7.275L17.6 7.875C16.55 6.40833 15.321 5.30433 13.913 4.563C12.505 3.82167 10.9257 3.45067 9.175 3.45C7.44167 3.45 5.875 3.825 4.475 4.575C3.075 5.325 1.85 6.44167 0.8 7.925L0 7.35C1.18333 5.73333 2.546 4.51267 4.088 3.688C5.63 2.86333 7.32567 2.45067 9.175 2.45ZM9.175 4.8C11.4583 4.8 13.4 5.55833 15 7.075C16.6 8.59167 17.4 10.4417 17.4 12.625C17.4 13.4417 17.104 14.1333 16.512 14.7C15.92 15.2667 15.1993 15.55 14.35 15.55C13.4833 15.55 12.75 15.2667 12.15 14.7C11.55 14.1333 11.25 13.4417 11.25 12.625C11.25 12.0917 11.05 11.6333 10.65 11.25C10.25 10.8667 9.75833 10.675 9.175 10.675C8.59167 10.675 8.1 10.8667 7.7 11.25C7.3 11.6333 7.1 12.0917 7.1 12.625C7.1 14.2083 7.575 15.5457 8.525 16.637C9.475 17.7283 10.875 18.5493 12.725 19.1L12.475 20.075C10.4417 19.5583 8.871 18.654 7.763 17.362C6.655 16.07 6.10067 14.491 6.1 12.625C6.1 11.8083 6.4 11.1127 7 10.538C7.6 9.96333 8.325 9.67567 9.175 9.675C10.025 9.67433 10.75 9.962 11.35 10.538C11.95 11.114 12.25 11.8097 12.25 12.625C12.25 13.1583 12.4543 13.6167 12.863 14C13.2717 14.3833 13.7673 14.575 14.35 14.575C14.9167 14.575 15.4 14.3833 15.8 14C16.2 13.6167 16.4 13.1583 16.4 12.625C16.4 10.725 15.7 9.10833 14.3 7.775C12.9 6.44167 11.2 5.775 9.2 5.775C7.2 5.775 5.5 6.44167 4.1 7.775C2.7 9.10833 2 10.7167 2 12.6C2 13.1833 2.06267 13.8083 2.188 14.475C2.31333 15.1417 2.51733 15.875 2.8 16.675L1.9 17.025C1.6 16.2583 1.375 15.5083 1.225 14.775C1.075 14.0417 1 13.325 1 12.625C1 10.4417 1.79167 8.59167 3.375 7.075C4.95833 5.55833 6.89167 4.8 9.175 4.8ZM9.175 0C10.2583 0 11.3167 0.133333 12.35 0.4C13.3833 0.666667 14.4917 1.1 15.675 1.7L15.275 2.625C14.125 2.04167 13.071 1.625 12.113 1.375C11.155 1.125 10.1757 1 9.175 1C8.075 1 7.05833 1.13333 6.125 1.4C5.19167 1.66667 4.21667 2.09167 3.2 2.675L2.75 1.8C3.85 1.18333 4.91667 0.729333 5.95 0.438C6.98333 0.146667 8.05833 0.000666667 9.175 0ZM9.175 7.225C10.8417 7.225 12.2043 7.775 13.263 8.875C14.3217 9.975 14.8507 11.3917 14.85 13.125H13.85C13.85 11.6583 13.4167 10.475 12.55 9.575C11.6833 8.675 10.5583 8.225 9.175 8.225C7.89167 8.225 6.8 8.65433 5.9 9.513C5 10.3717 4.55 11.409 4.55 12.625C4.55 13.9083 4.775 15.0293 5.225 15.988C5.675 16.9467 6.48333 18.034 7.65 19.25L6.95 19.95C5.7 18.65 4.821 17.454 4.313 16.362C3.805 15.27 3.55067 14.0243 3.55 12.625C3.55 11.125 4.096 9.85 5.188 8.8C6.28 7.75 7.609 7.225 9.175 7.225ZM10.3 16.4C9.76667 15.9 9.35833 15.2873 9.075 14.562C8.79167 13.8367 8.65 13.0243 8.65 12.125H9.65C9.65 12.875 9.76667 13.5583 10 14.175C10.2333 14.7917 10.5667 15.3 11 15.7C11.4333 16.0833 11.921 16.379 12.463 16.587C13.005 16.795 13.5673 16.8993 14.15 16.9C14.4333 16.9 14.7083 16.8707 14.975 16.812C15.2417 16.7533 15.5 16.6743 15.75 16.575L15.925 17.55C15.6417 17.6833 15.35 17.775 15.05 17.825C14.75 17.875 14.45 17.9 14.15 17.9C13.4167 17.9 12.721 17.771 12.063 17.513C11.405 17.255 10.8173 16.884 10.3 16.4Z" fill="#2C3F33"/>
</svg>
