<svg width="50" height="40" viewBox="0 0 103 41" fill="none" xmlns="http://www.w3.org/2000/svg">
<path d="M98.7948 25.0569L102.54 27.3678C101.325 29.0248 98.4173 31.868 93.3909 31.868C87.1492 31.868 82.501 27.3983 82.501 21.7122C82.501 15.6615 87.1986 11.5566 92.8654 11.5566C98.5649 11.5566 101.357 15.7526 102.261 18.0178L102.754 19.1734L88.0692 24.7984C89.1861 26.8357 90.9274 27.8695 93.3909 27.8695C95.8549 27.8695 97.563 26.7445 98.7948 25.0569ZM87.2808 21.3932L97.0868 17.6227C96.5447 16.361 94.9352 15.4641 93.013 15.4641C90.5659 15.4641 87.1659 17.4709 87.2808 21.3932Z" fill="#FF302F"/>
<path d="M75.4219 1.20337H80.1521V30.9406H75.4219V1.20337Z" fill="#20B15A"/>
<path d="M67.9645 12.3471H72.5308V30.4083C72.5308 37.9033 67.7509 40.9895 62.1005 40.9895C56.7788 40.9895 53.5759 37.6753 52.3768 34.9845L56.5652 33.3728C57.3206 35.0299 59.1439 36.9913 62.1005 36.9913C65.7304 36.9913 67.9645 34.9083 67.9645 31.0165V29.5571H67.8003C66.716 30.7732 64.6465 31.8677 62.0185 31.8677C56.5322 31.8677 51.5059 27.4436 51.5059 21.7427C51.5059 16.011 56.5322 11.5415 62.0185 11.5415C64.6301 11.5415 66.716 12.6209 67.8003 13.8068H67.9645V12.3471ZM68.2928 21.7427C68.2928 18.1547 65.7141 15.5397 62.429 15.5397C59.1109 15.5397 56.3187 18.1547 56.3187 21.7427C56.3187 25.2848 59.1109 27.8541 62.429 27.8541C65.7143 27.8695 68.2931 25.2848 68.2931 21.7427" fill="#3686F7"/>
<path d="M25.5371 21.6665C25.5371 27.5198 20.6096 31.8221 14.5649 31.8221C8.52053 31.8221 3.59277 27.5046 3.59277 21.6665C3.59277 15.783 8.52053 11.4958 14.5649 11.4958C20.6096 11.4958 25.5371 15.783 25.5371 21.6665ZM20.7409 21.6665C20.7409 18.018 17.8827 15.5092 14.5649 15.5092C11.2472 15.5092 8.38896 18.018 8.38896 21.6665C8.38896 25.2848 11.2472 27.8239 14.5649 27.8239C17.883 27.8239 20.7409 25.2848 20.7409 21.6665Z" fill="#FF302F"/>
<path d="M49.502 21.7122C49.502 27.5654 44.5742 31.8677 38.5298 31.8677C32.4851 31.8677 27.5576 27.5652 27.5576 21.7122C27.5576 15.8287 32.4851 11.5566 38.5298 11.5566C44.5742 11.5566 49.502 15.8136 49.502 21.7122ZM44.6892 21.7122C44.6892 18.0637 41.8312 15.5549 38.5132 15.5549C35.1951 15.5549 32.3372 18.0637 32.3372 21.7122C32.3372 25.3304 35.1954 27.8695 38.5132 27.8695C41.8476 27.8695 44.6892 25.3153 44.6892 21.7122Z" fill="#FFBA40"/>
</svg>
