<svg width="30" height="30" viewBox="0 0 24 24" fill="none" xmlns="http://www.w3.org/2000/svg">
<g clip-path="url(#clip0_2156_429)">
<path fill-rule="evenodd" clip-rule="evenodd" d="M11.298 2.19512C11.7506 2.02545 12.2494 2.02545 12.702 2.19512L19.702 4.82012C20.0833 4.96305 20.4119 5.21897 20.6438 5.55368C20.8758 5.88838 21.0001 6.2859 21 6.69312V12.0561C21 13.7275 20.5346 15.366 19.6559 16.7878C18.7772 18.2096 17.52 19.3586 16.025 20.1061L12.671 21.7831C12.4627 21.8873 12.2329 21.9416 12 21.9416C11.7671 21.9416 11.5373 21.8873 11.329 21.7831L7.975 20.1061C6.48004 19.3586 5.22277 18.2096 4.34407 16.7878C3.46537 15.366 2.99996 13.7275 3 12.0561V6.69312C2.99995 6.2859 3.1242 5.88838 3.35615 5.55368C3.5881 5.21897 3.91669 4.96305 4.298 4.82012L11.298 2.19512Z" fill="#2C3F33"/>
</g>
<defs>
<clipPath id="clip0_2156_429">
<rect width="24" height="24" fill="white"/>
</clipPath>
</defs>
</svg>
